<svg>
    <path
        d="m 108.91469,131.35203 c -14.315636,-0.86269 -26.012918,-2.36627 -40.781245,-5.24205 -13.76578,-2.68056 -32.063199,-7.57244 -34.218486,-9.14842 -1.301045,-0.95135 3.317182,-6.0981 32.993469,-36.76936 18.978446,-19.614747 38.426922,-39.747451 43.218842,-44.739344 4.79192,-4.991892 9.44591,-9.076167 10.34221,-9.076167 0.89629,0 21.44439,17.782791 45.66242,39.517313 24.21803,21.734523 46.45857,41.419408 49.42341,43.744178 2.96485,2.32479 5.38498,4.47559 5.37808,4.77956 -0.0157,0.69316 -6.28967,2.80086 -22.61793,7.59837 -16.60702,4.8794 -36.78669,8.25029 -56.10818,9.3725 -16.70492,0.97024 -16.58309,0.97037 -33.29259,-0.0366 z"
        style="fill:#e33952"
    />
    <path
        d="m 111.28043,137.41582 c -21.190549,-1.09669 -45.399909,-5.17204 -67.499999,-11.36279 -13.66052,-3.82663 -15.66369,-4.88948 -15.29148,-8.11333 0.42813,-3.70811 3.54823,-3.66592 16.92575,0.22891 42.43877,12.35591 88.035089,15.39737 128.377009,8.56326 13.62169,-2.30758 32.1998,-7.07888 42.34943,-10.87634 6.94308,-2.59774 10.35319,-2.23214 10.74376,1.15184 0.34686,3.00527 -2.45825,4.68 -14.35447,8.57005 -19.63064,6.41919 -42.27163,10.49346 -66.09375,11.89365 -15.8677,0.93264 -16.07412,0.93231 -35.15625,-0.0552 z"
        style="fill:#1eda9c"
    />
    <path
        d="m 103.75887,143.77491 c -2.0625,-0.20138 -8.338752,-0.81079 -13.947226,-1.35425 -22.370266,-2.16771 -46.933993,-7.71566 -60.34965,-13.63056 -4.109512,-1.81186 -4.921875,-2.57023 -4.921875,-4.59479 0,-1.33361 0.591616,-2.65178 1.314702,-2.92925 0.723086,-2.27748 6.765352,1.17436 13.427256,3.22629 47.81642,14.72795 104.434853,16.86841 151.195543,5.71593 15.02727,-3.58402 31.10765,-8.91168 34.17108,-11.32137 3.31209,-2.6053 5.67267,-1.96998 5.67267,1.52671 0,2.46899 -0.62441,3.07747 -5.625,5.48154 -14.44848,6.94619 -37.88292,13.10301 -61.40625,16.13299 -11.03471,1.42134 -50.8873,2.59069 -59.53125,1.74676 z"
        style="fill:#03aa73"
    />
    <path
        d="m 108.75755,85.329029 c -0.81028,-0.810267 -1.47322,-2.045758 -1.47322,-2.745535 0,-0.699777 0.66294,-1.935268 1.47322,-2.745535 0.81026,-0.810268 2.04575,-1.473215 2.74553,-1.473215 0.69978,0 1.93527,0.662947 2.74553,1.473215 0.81028,0.810267 1.47322,2.045758 1.47322,2.745535 0,0.699777 -0.66294,1.935268 -1.47322,2.745535 -0.81026,0.810268 -2.04575,1.473215 -2.74553,1.473215 -0.69978,0 -1.93527,-0.662947 -2.74553,-1.473215 z m 27.5,0 c -0.81028,-0.810267 -1.47322,-2.045758 -1.47322,-2.745535 0,-1.64147 2.57728,-4.21875 4.21875,-4.21875 1.64147,0 4.21875,2.57728 4.21875,4.21875 0,1.64147 -2.57728,4.21875 -4.21875,4.21875 -0.69978,0 -1.93527,-0.662947 -2.74553,-1.473215 z"
        style="fill:#454544"
    />
    <path
        d="m 130.82953,118.23334 c -0.96612,-1.56321 1.20675,-3.3558 2.50005,-2.0625 1.0818,1.0818 0.40473,3.08168 -1.04332,3.08168 -0.45476,0 -1.11029,-0.45863 -1.45673,-1.01918 z m -33.750003,-2.8125 c -0.96612,-1.56321 1.20676,-3.3558 2.50005,-2.0625 1.081803,1.0818 0.40474,3.08168 -1.04332,3.08168 -0.45476,0 -1.11029,-0.45863 -1.45673,-1.01918 z m 70.312503,0 c -0.96612,-1.56321 1.20675,-3.3558 2.50005,-2.0625 1.0818,1.0818 0.40473,3.08168 -1.04332,3.08168 -0.45476,0 -1.11029,-0.45863 -1.45673,-1.01918 z M 49.267026,106.98335 c -0.966114,-1.56321 1.206758,-3.3558 2.500049,-2.0625 1.081804,1.0818 0.404738,3.08168 -1.043314,3.08168 -0.454763,0 -1.110294,-0.45863 -1.456735,-1.01918 z m 68.087094,-8.193597 c -7.6838,-6.80224 -6.79704,-7.662214 7.90089,-7.662214 10.14665,0 11.86097,0.217252 12.37962,1.568846 0.9375,2.443092 -9.32993,10.619335 -13.31712,10.604795 -1.03125,-0.004 -4.16478,-2.0339 -6.96339,-4.511427 z m 69.72541,0.6936 c -0.96612,-1.56321 1.20675,-3.35579 2.50005,-2.0625 1.0818,1.0818 0.40473,3.081677 -1.04332,3.081677 -0.45476,0 -1.11029,-0.45863 -1.45673,-1.019177 z m -120.000004,-0.9375 c -0.966114,-1.56321 1.206758,-3.355791 2.500049,-2.0625 1.081804,1.0818 0.404738,3.08169 -1.043314,3.08169 -0.454763,0 -1.110294,-0.45864 -1.456735,-1.01919 z m 21.5625,-9.375 c -0.966114,-1.563206 1.206758,-3.355791 2.500049,-2.0625 1.081804,1.081804 0.404738,3.081686 -1.043314,3.081686 -0.454763,0 -1.110294,-0.458634 -1.456735,-1.019186 z m 70.312504,-7.5 c -0.96612,-1.563206 1.20675,-3.355791 2.50005,-2.0625 1.0818,1.081804 0.40473,3.081686 -1.04332,3.081686 -0.45476,0 -1.11029,-0.458634 -1.45673,-1.019186 z"
        style="fill:#454544"
    />
</svg>
